<?xml version="1.0" encoding="UTF-8" standalone="no"?>
<!-- Created with Inkscape (http://www.inkscape.org/) -->

<svg
   version="1.1"
   id="svg2"
   xml:space="preserve"
   width="486.01334"
   height="375.73334"
   viewBox="0 0 486.01334 375.73334"
   sodipodi:docname="logo.svg"
   inkscape:version="1.1.2 (0a00cf5339, 2022-02-04)"
   xmlns:inkscape="http://www.inkscape.org/namespaces/inkscape"
   xmlns:sodipodi="http://sodipodi.sourceforge.net/DTD/sodipodi-0.dtd"
   xmlns="http://www.w3.org/2000/svg"
   xmlns:svg="http://www.w3.org/2000/svg"><defs
     id="defs6" /><sodipodi:namedview
     id="namedview4"
     pagecolor="#ffffff"
     bordercolor="#666666"
     borderopacity="1.0"
     inkscape:pageshadow="2"
     inkscape:pageopacity="0.0"
     inkscape:pagecheckerboard="0"
     showgrid="false"
     inkscape:zoom="1.9135912"
     inkscape:cx="243.2599"
     inkscape:cy="187.86667"
     inkscape:window-width="2486"
     inkscape:window-height="1536"
     inkscape:window-x="0"
     inkscape:window-y="0"
     inkscape:window-maximized="1"
     inkscape:current-layer="g8" /><g
     id="g8"
     inkscape:groupmode="layer"
     inkscape:label="ink_ext_XXXXXX"
     transform="matrix(1.3333333,0,0,-1.3333333,0,375.73333)"><g
       id="g10"
       transform="scale(0.1)"><path
         d="m 2338.12,2442.63 -66.43,-170.48 c -10.83,-28.12 -43.85,-50.85 -73.93,-50.85 l -492.75,0.24 77.04,201.21 -70.65,71.42 592.15,-0.46 c 29.95,0 45.46,-22.83 34.57,-51.08 z m -191.05,-515.94 -75.11,-193.14 c -10.98,-28.15 -44.12,-51.08 -74.13,-51.08 l -502.09,-0.05 116.43,295.43 500.35,-0.09 c 30,0 45.51,-22.82 34.55,-51.07 z m 341.76,852.52 c -2.85,0 -5.61,-0.08 -8.5,-0.08 -56.19,0 -1358.37,-0.11 -1358.37,-0.11 L 1405.19,2524.9 958.879,1392.25 c 0,0 1008.431,-0.4 1101.881,-0.4 292.66,0 387.1,62.97 480.85,336.87 42.68,178.98 24.75,297.31 -132.71,368.07 227.81,27.26 278.34,187.03 337.96,349.95 75.42,235.13 -40.95,332.47 -258.03,332.47"
         style="fill:#204192;fill-opacity:1;fill-rule:nonzero;stroke:none"
         id="path12" /><path
         d="m 2408.9,2096.79 c 157.46,-70.76 175.39,-189.09 132.71,-368.07 -93.75,-273.9 -188.19,-336.87 -480.85,-336.87 -93.45,0 -1101.881,0.4 -1101.881,0.4 l 446.311,1132.65 -283.23,254.12 c 0,0 1302.18,0.11 1358.37,0.11 2.89,0 5.65,0.08 8.5,0.08 217.08,0 333.45,-97.34 258.03,-332.47 -59.62,-162.92 -110.15,-322.69 -337.96,-349.95 z m 358.61,616.35 c -50.71,69.55 -144.49,104.85 -278.68,104.85 -2.85,0 -1468.24,-0.17 -1468.24,-0.17 l 338.52,-303.8 -457.282,-1160.57 c 0,0 1065.482,-0.35 1158.932,-0.35 165.19,0 262.91,21.04 337.16,72.57 75.5,52.47 127.77,136.63 180.44,290.46 l 0.62,1.82 0.39,1.77 c 25.19,105.88 27.73,181.47 8.03,245.14 -14.06,45.28 -39.57,83.48 -77.23,115.15 63.28,22.1 114.68,58.56 155.93,110.13 52.33,65.29 82.13,147.27 111.09,226.51 l 6.09,16.75 0.3,0.75 0.23,0.78 c 37.89,117.9 32.35,211.51 -16.3,278.21"
         style="fill:#f1461f;fill-opacity:1;fill-rule:nonzero;stroke:none"
         id="path14" /><path
         d="m 1997.83,1721.28 -445.05,-0.05 85.84,217.81 471.57,-0.06 -74.44,-191.39 c -5.14,-13.29 -23.95,-26.31 -37.92,-26.31 z m 114.69,256.48 -500.35,0.09 -116.43,-295.43 502.09,0.05 c 30.01,0 63.15,22.93 74.13,51.08 l 75.11,193.14 c 10.96,28.25 -4.55,51.07 -34.55,51.07"
         style="fill:#f1461f;fill-opacity:1;fill-rule:nonzero;stroke:none"
         id="path16" /><path
         d="m 2197.76,2260.09 -436.28,0.16 65.75,172.08 -22.65,22.92 496.59,-0.35 -65.67,-168.59 c -5.14,-13.26 -23.79,-26.22 -37.74,-26.22 z m 105.79,233.62 -592.15,0.46 70.65,-71.42 -77.04,-201.21 492.75,-0.24 c 30.08,0 63.1,22.73 73.93,50.85 l 66.43,170.48 c 10.89,28.25 -4.62,51.08 -34.57,51.08"
         style="fill:#f1461f;fill-opacity:1;fill-rule:nonzero;stroke:none"
         id="path18" /><path
         d="M 146.141,649.422 H 81.9492 v -55.93 h 65.0588 c 26.012,0 40.328,9.977 40.328,27.75 v 0.879 c 0,16.469 -13.016,27.301 -41.195,27.301 z m 29.05,86.297 c 0,16.933 -13.441,26.023 -38.168,26.023 H 81.9492 V 708.41 h 52.9138 c 25.586,0 40.328,8.692 40.328,26.442 z M 0,829.398 h 155.688 c 38.14,0 65.031,-9.558 82.828,-26.898 12.121,-12.578 19.5,-28.602 19.5,-49.418 v -0.863 c 0,-35.117 -19.938,-55.949 -46.825,-67.668 36.84,-12.153 60.266,-32.961 60.266,-74.121 v -0.879 c 0,-52.02 -42.492,-83.692 -114.902,-83.692 L 0,525.859 v 303.539"
         style="fill:#204192;fill-opacity:1;fill-rule:nonzero;stroke:none"
         id="path20" /><path
         d="m 616.527,676.742 v 0.867 c 0,44.25 -31.222,81.95 -77.621,81.95 -46.406,0 -77.195,-37.258 -77.195,-81.067 v -0.883 c 0,-43.777 31.652,-81.937 78.059,-81.937 45.972,0 76.757,37.289 76.757,81.07 z m -240.664,0 v 0.867 c 0,87.172 70.254,157.871 163.907,157.871 93.664,0 163.043,-69.839 163.043,-156.988 v -0.883 c 0,-87.148 -70.25,-157.82 -163.907,-157.82 -93.656,0 -163.043,69.781 -163.043,156.953"
         style="fill:#204192;fill-opacity:1;fill-rule:nonzero;stroke:none"
         id="path22" /><path
         d="m 826.715,829.398 h 84.121 V 525.859 h -84.121 v 303.539"
         style="fill:#204192;fill-opacity:1;fill-rule:nonzero;stroke:none"
         id="path24" /><path
         d="m 1023.52,570.949 46.84,55.942 c 30.34,-23.84 63.3,-36.43 98.43,-36.43 22.98,0 35.12,7.801 35.12,20.828 v 0.859 c 0,13.012 -9.97,19.512 -51.6,29.5 -64.6,14.731 -114.47,32.934 -114.47,94.934 v 0.867 c 0,56.383 44.66,97.153 117.5,97.153 51.61,0 91.93,-13.903 124.9,-40.34 l -42.07,-59.41 c -27.74,19.968 -58.11,29.929 -84.99,29.929 -20.39,0 -30.36,-8.261 -30.36,-19.511 v -0.86 c 0,-13.89 10.41,-19.949 52.9,-29.488 69.39,-15.203 112.75,-37.731 112.75,-94.551 v -0.859 c 0,-61.981 -49.01,-98.852 -122.72,-98.852 -53.77,0 -104.49,16.899 -142.23,50.289"
         style="fill:#204192;fill-opacity:1;fill-rule:nonzero;stroke:none"
         id="path26" /><path
         d="m 1410.23,829.398 h 244.12 v -71.136 h -160.87 v -46.383 h 145.71 v -66.348 h -145.71 v -48.133 h 163.04 v -71.539 h -246.29 v 303.539"
         style="fill:#204192;fill-opacity:1;fill-rule:nonzero;stroke:none"
         id="path28" /><path
         d="m 1948.19,570.949 46.86,55.942 c 30.35,-23.84 63.31,-36.43 98.42,-36.43 22.99,0 35.12,7.801 35.12,20.828 v 0.859 c 0,13.012 -9.97,19.512 -51.6,29.5 -64.62,14.731 -114.48,32.934 -114.48,94.934 v 0.867 c 0,56.383 44.67,97.153 117.52,97.153 51.61,0 91.93,-13.903 124.88,-40.34 l -42.06,-59.41 c -27.74,19.968 -58.09,29.929 -85,29.929 -20.36,0 -30.35,-8.261 -30.35,-19.511 v -0.86 c 0,-13.89 10.42,-19.949 52.91,-29.488 69.39,-15.203 112.75,-37.731 112.75,-94.551 v -0.859 c 0,-61.981 -49.01,-98.852 -122.72,-98.852 -53.78,0 -104.52,16.899 -142.25,50.289"
         style="fill:#204192;fill-opacity:1;fill-rule:nonzero;stroke:none"
         id="path30" /><path
         d="m 2403.86,755.672 h -90.64 v 73.726 h 265.82 v -73.726 h -91.06 V 525.859 h -84.12 v 229.813"
         style="fill:#204192;fill-opacity:1;fill-rule:nonzero;stroke:none"
         id="path32" /><path
         d="m 2833.93,645.961 -33.84,85.859 -34.26,-85.859 z m -73.73,185.598 h 81.09 l 129.25,-305.7 h -90.21 l -21.69,54.633 h -117.52 l -21.67,-54.633 h -88.02 l 128.77,305.7"
         style="fill:#204192;fill-opacity:1;fill-rule:nonzero;stroke:none"
         id="path34" /><path
         d="m 3113.51,755.672 h -90.62 v 73.726 h 265.81 v -73.726 h -91.06 V 525.859 h -84.13 v 229.813"
         style="fill:#204192;fill-opacity:1;fill-rule:nonzero;stroke:none"
         id="path36" /><path
         d="m 3398.76,829.398 h 244.12 v -71.136 h -160.87 v -46.383 h 145.7 v -66.348 h -145.7 v -48.133 h 163.04 v -71.539 h -246.29 v 303.539"
         style="fill:#204192;fill-opacity:1;fill-rule:nonzero;stroke:none"
         id="path38" /><path
         d="m 96.25,138.75 v 170.422 h 84.992 v -168.68 c 0,-43.8201 22.113,-64.6209 55.938,-64.6209 34.246,0 56.367,19.9687 56.367,62.4379 v 170.863 h 84.992 V 140.922 C 378.539,43.332 322.609,-0.0078125 236.313,-0.0078125 150.449,-0.0078125 96.25,43.7813 96.25,138.75"
         style="fill:#204192;fill-opacity:1;fill-rule:nonzero;stroke:none"
         id="path40" /><path
         d="m 512.406,309.172 h 78.496 l 124.883,-160.43 v 160.43 h 83.27 V 5.64063 H 725.762 L 595.672,172.141 V 5.64063 H 512.406 V 309.172"
         style="fill:#204192;fill-opacity:1;fill-rule:nonzero;stroke:none"
         id="path42" /><path
         d="m 937.258,309.172 h 84.122 V 5.64063 H 937.258 V 309.172"
         style="fill:#204192;fill-opacity:1;fill-rule:nonzero;stroke:none"
         id="path44" /><path
         d="m 1128.88,309.172 h 93.65 l 68.95,-192.102 69.38,192.102 h 91.93 L 1329.63,3.46094 h -78.04 L 1128.88,309.172"
         style="fill:#204192;fill-opacity:1;fill-rule:nonzero;stroke:none"
         id="path46" /><path
         d="m 1558.04,309.172 h 244.14 V 238.031 H 1641.29 V 191.648 H 1787 V 125.289 H 1641.29 V 77.1797 h 163.06 V 5.64063 H 1558.04 V 309.172"
         style="fill:#204192;fill-opacity:1;fill-rule:nonzero;stroke:none"
         id="path48" /><path
         d="m 2073.11,163.469 c 28.18,0 45.1,13.883 45.1,35.98 v 0.883 c 0,24.277 -17.79,36.41 -45.54,36.41 h -55.5 v -73.273 z m -140.07,145.703 h 143.52 c 46.41,0 78.5,-12.16 98.88,-32.543 17.78,-17.738 26.89,-40.77 26.89,-70.649 v -0.878 c 0,-46.852 -24.72,-77.641 -62.45,-93.672 L 2212.3,5.64063 h -96.7 l -61.15,91.89847 h -37.28 V 5.64063 h -84.13 V 309.172"
         style="fill:#204192;fill-opacity:1;fill-rule:nonzero;stroke:none"
         id="path50" /><path
         d="m 2301.95,50.7109 46.84,55.9371 c 30.34,-23.8394 63.31,-36.4175 98.43,-36.4175 23,0 35.11,7.8203 35.11,20.8281 v 0.8711 c 0,12.9923 -9.96,19.5003 -51.6,29.5003 -64.61,14.711 -114.48,32.929 -114.48,94.941 v 0.859 c 0,56.372 44.69,97.149 117.52,97.149 51.6,0 91.93,-13.899 124.88,-40.34 l -42.06,-59.41 c -27.75,19.953 -58.09,29.922 -84.98,29.922 -20.38,0 -30.37,-8.25 -30.37,-19.5 v -0.879 c 0,-13.891 10.44,-19.93 52.91,-29.473 69.4,-15.207 112.75,-37.758 112.75,-94.558 v -0.8597 c 0,-61.9922 -49,-98.851612 -122.7,-98.851612 -53.77,0 -104.51,16.902312 -142.25,50.281212"
         style="fill:#204192;fill-opacity:1;fill-rule:nonzero;stroke:none"
         id="path52" /><path
         d="m 2690.38,309.172 h 84.13 V 5.64063 h -84.13 V 309.172"
         style="fill:#204192;fill-opacity:1;fill-rule:nonzero;stroke:none"
         id="path54" /><path
         d="m 2975.65,235.441 h -90.63 v 73.731 h 265.81 v -73.731 h -91.06 V 5.64063 h -84.12 V 235.441"
         style="fill:#204192;fill-opacity:1;fill-rule:nonzero;stroke:none"
         id="path56" /><path
         d="m 3363.21,119.25 -115.78,189.922 h 95.86 l 62.42,-110.582 62.87,110.582 h 94.11 L 3447.33,120.551 V 5.64063 h -84.12 V 119.25"
         style="fill:#204192;fill-opacity:1;fill-rule:nonzero;stroke:none"
         id="path58" /></g></g></svg>
