<?xml version="1.0" encoding="UTF-8" standalone="no"?>
<!-- Created with Inkscape (http://www.inkscape.org/) -->

<svg
   version="1.1"
   id="svg2"
   xml:space="preserve"
   width="493.78668"
   height="376.49332"
   viewBox="0 0 493.78668 376.49332"
   sodipodi:docname="logo-white.svg"
   inkscape:version="1.1.2 (0a00cf5339, 2022-02-04)"
   xmlns:inkscape="http://www.inkscape.org/namespaces/inkscape"
   xmlns:sodipodi="http://sodipodi.sourceforge.net/DTD/sodipodi-0.dtd"
   xmlns="http://www.w3.org/2000/svg"
   xmlns:svg="http://www.w3.org/2000/svg"><defs
     id="defs6" /><sodipodi:namedview
     id="namedview4"
     pagecolor="#ffffff"
     bordercolor="#666666"
     borderopacity="1.0"
     inkscape:pageshadow="2"
     inkscape:pageopacity="0.0"
     inkscape:pagecheckerboard="0"
     showgrid="false"
     inkscape:zoom="1.9097285"
     inkscape:cx="246.89374"
     inkscape:cy="188.24666"
     inkscape:window-width="2486"
     inkscape:window-height="1536"
     inkscape:window-x="0"
     inkscape:window-y="0"
     inkscape:window-maximized="1"
     inkscape:current-layer="g8" /><g
     id="g8"
     inkscape:groupmode="layer"
     inkscape:label="ink_ext_XXXXXX"
     transform="matrix(1.3333333,0,0,-1.3333333,0,376.49333)"><g
       id="g10"
       transform="scale(0.1)"><path
         d="m 2375.5,2481.74 -67.42,-173.22 c -11.02,-28.59 -44.55,-51.66 -75.11,-51.66 l -500.65,0.23 78.31,204.41 -71.79,72.58 601.59,-0.42 c 30.44,0 46.19,-23.2 35.07,-51.92 z m -194.01,-524.23 -76.31,-196.22 c -11.2,-28.64 -44.87,-51.91 -75.35,-51.91 H 1519.7 l 118.23,300.11 508.39,-0.13 c 30.5,0 46.29,-23.18 35.17,-51.85 z m 347.21,866.21 c -2.89,0 -5.75,-0.14 -8.69,-0.14 -57.04,0 -1380.06,-0.04 -1380.06,-0.04 L 1427.72,2565.3 974.27,1414.54 c 0,0 1024.55,-0.41 1119.48,-0.41 297.28,0 393.33,63.96 488.57,342.23 43.34,181.91 25.1,302.1 -134.82,373.97 231.41,27.72 282.74,190.03 343.32,355.59 76.63,238.89 -41.62,337.8 -262.12,337.8"
         style="fill:#ffffff;fill-opacity:1;fill-rule:nonzero;stroke:none"
         id="path12" /><path
         d="M 148.453,659.809 H 83.2578 v -56.817 h 66.0782 c 26.43,0 40.969,10.137 40.969,28.188 v 0.879 c 0,16.75 -13.215,27.75 -41.852,27.75 z m 29.516,87.671 c 0,17.192 -13.656,26.442 -38.766,26.442 H 83.2578 V 719.73 h 53.7462 c 25.984,0 40.965,8.809 40.965,26.872 z M 0,842.648 h 158.145 c 38.765,0 66.078,-9.707 84.14,-27.328 12.332,-12.761 19.824,-29.058 19.824,-50.218 v -0.872 c 0,-35.691 -20.261,-56.839 -47.578,-68.718 37.446,-12.34 61.231,-33.492 61.231,-75.34 v -0.871 c 0,-52.871 -43.168,-85.031 -116.735,-85.031 L 0,534.27 v 308.378"
         style="fill:#ffffff;fill-opacity:1;fill-rule:nonzero;stroke:none"
         id="path14" /><path
         d="m 626.359,687.57 v 0.879 c 0,44.942 -31.718,83.27 -78.855,83.27 -47.137,0 -78.41,-37.879 -78.41,-82.387 v -0.883 c 0,-44.488 32.156,-83.258 79.289,-83.258 46.695,0 77.976,37.891 77.976,82.379 z m -244.488,0 v 0.879 c 0,88.551 71.363,160.36 166.512,160.36 95.152,0 165.637,-70.93 165.637,-159.477 v -0.883 c 0,-88.551 -71.364,-160.359 -166.516,-160.359 -95.149,0 -165.633,70.93 -165.633,159.48"
         style="fill:#ffffff;fill-opacity:1;fill-rule:nonzero;stroke:none"
         id="path16" /><path
         d="m 839.941,842.648 h 85.461 V 534.27 h -85.461 v 308.378"
         style="fill:#ffffff;fill-opacity:1;fill-rule:nonzero;stroke:none"
         id="path18" /><path
         d="m 1039.9,580.09 47.58,56.808 c 30.84,-24.218 64.32,-37 100,-37 23.35,0 35.68,7.942 35.68,21.153 v 0.879 c 0,13.222 -10.13,19.84 -52.42,29.961 -65.64,14.968 -116.3,33.488 -116.3,96.468 v 0.883 c 0,57.27 45.37,98.688 119.38,98.688 52.42,0 93.39,-14.11 126.87,-40.969 l -42.73,-60.359 c -28.19,20.257 -59.03,30.398 -86.34,30.398 -20.71,0 -30.84,-8.371 -30.84,-19.82 v -0.879 c 0,-14.102 10.57,-20.281 53.75,-29.949 70.48,-15.422 114.53,-38.332 114.53,-96.043 v -0.879 c 0,-63 -49.78,-100.45 -124.67,-100.45 -54.62,0 -106.16,17.192 -144.49,51.11"
         style="fill:#ffffff;fill-opacity:1;fill-rule:nonzero;stroke:none"
         id="path20" /><path
         d="m 1432.79,842.648 h 248.02 v -72.257 h -163.44 v -47.129 h 148.02 v -67.41 h -148.02 v -48.891 h 165.64 V 534.27 h -250.22 v 308.378"
         style="fill:#ffffff;fill-opacity:1;fill-rule:nonzero;stroke:none"
         id="path22" /><path
         d="m 1979.39,580.09 47.57,56.808 c 30.84,-24.218 64.32,-37 100,-37 23.35,0 35.68,7.942 35.68,21.153 v 0.879 c 0,13.222 -10.13,19.84 -52.42,29.961 -65.64,14.968 -116.3,33.488 -116.3,96.468 v 0.883 c 0,57.27 45.37,98.688 119.39,98.688 52.42,0 93.38,-14.11 126.85,-40.969 l -42.71,-60.359 C 2169.24,766.859 2138.41,777 2111.1,777 c -20.7,0 -30.83,-8.371 -30.83,-19.82 v -0.879 c 0,-14.102 10.57,-20.281 53.74,-29.949 70.49,-15.422 114.53,-38.332 114.53,-96.043 v -0.879 c 0,-63 -49.78,-100.45 -124.67,-100.45 -54.62,0 -106.16,17.192 -144.48,51.11"
         style="fill:#ffffff;fill-opacity:1;fill-rule:nonzero;stroke:none"
         id="path24" /><path
         d="m 2442.32,767.75 h -92.06 v 74.898 h 270.03 V 767.75 h -92.5 V 534.27 h -85.47 v 233.48"
         style="fill:#ffffff;fill-opacity:1;fill-rule:nonzero;stroke:none"
         id="path26" /><path
         d="m 2879.25,656.301 -34.35,87.211 -34.8,-87.211 z m -74.88,188.539 h 82.37 l 131.28,-310.57 h -91.62 l -22.03,55.5 h -119.38 l -22.04,-55.5 h -89.42 l 130.84,310.57"
         style="fill:#ffffff;fill-opacity:1;fill-rule:nonzero;stroke:none"
         id="path28" /><path
         d="m 3163.33,767.75 h -92.06 v 74.898 h 270.04 V 767.75 h -92.52 V 534.27 h -85.46 v 233.48"
         style="fill:#ffffff;fill-opacity:1;fill-rule:nonzero;stroke:none"
         id="path30" /><path
         d="m 3453.15,842.648 h 248.01 v -72.257 h -163.43 v -47.129 h 148.02 v -67.41 h -148.02 v -48.891 h 165.63 V 534.27 h -250.21 v 308.378"
         style="fill:#ffffff;fill-opacity:1;fill-rule:nonzero;stroke:none"
         id="path32" /><path
         d="M 97.7773,140.98 V 314.102 H 184.121 V 142.719 c 0,-44.4885 22.465,-65.6174 56.824,-65.6174 34.801,0 57.27,20.25 57.27,63.4184 v 173.582 h 86.34 V 143.172 C 384.555,44.0586 327.73,0.0117188 240.063,0.0117188 152.844,0.0117188 97.7773,44.5 97.7773,140.98"
         style="fill:#ffffff;fill-opacity:1;fill-rule:nonzero;stroke:none"
         id="path34" /><path
         d="m 520.613,314.102 h 79.735 l 126.871,-163 v 163 h 84.578 V 5.71875 H 737.348 L 605.195,174.891 V 5.71875 H 520.613 V 314.102"
         style="fill:#ffffff;fill-opacity:1;fill-rule:nonzero;stroke:none"
         id="path36" /><path
         d="m 952.258,314.102 h 85.452 V 5.71875 H 952.258 V 314.102"
         style="fill:#ffffff;fill-opacity:1;fill-rule:nonzero;stroke:none"
         id="path38" /><path
         d="m 1146.93,314.102 h 95.16 l 70.04,-195.172 70.48,195.172 H 1476 L 1350.89,3.51172 H 1271.6 L 1146.93,314.102"
         style="fill:#ffffff;fill-opacity:1;fill-rule:nonzero;stroke:none"
         id="path40" /><path
         d="M 1582.98,314.102 H 1831 V 241.84 h -163.44 v -47.121 h 148.02 V 127.301 H 1667.56 V 78.4219 H 1833.2 V 5.71875 H 1582.98 V 314.102"
         style="fill:#ffffff;fill-opacity:1;fill-rule:nonzero;stroke:none"
         id="path42" /><path
         d="m 2106.26,166.082 c 28.64,0 45.82,14.09 45.82,36.57 v 0.86 c 0,24.668 -18.06,37.008 -46.25,37.008 h -56.39 v -74.438 z m -142.28,148.02 h 145.8 c 47.14,0 79.75,-12.34 100.45,-33.051 18.06,-18.059 27.3,-41.41 27.3,-71.789 v -0.903 c 0,-47.558 -25.09,-78.839 -63.42,-95.14 L 2247.66,5.71875 h -98.22 l -62.12,93.39065 h -37.88 V 5.71875 h -85.46 V 314.102"
         style="fill:#ffffff;fill-opacity:1;fill-rule:nonzero;stroke:none"
         id="path44" /><path
         d="m 2338.79,51.5391 47.58,56.8199 c 30.83,-24.2184 64.33,-36.9996 100,-36.9996 23.34,0 35.69,7.9414 35.69,21.1601 v 0.8711 c 0,13.2114 -10.13,19.8284 -52.44,29.9614 -65.63,14.968 -116.28,33.48 -116.28,96.457 v 0.882 c 0,57.289 45.37,98.688 119.37,98.688 52.43,0 93.4,-14.109 126.87,-40.957 l -42.72,-60.363 c -28.2,20.261 -59.03,30.39 -86.34,30.39 -20.7,0 -30.84,-8.359 -30.84,-19.82 v -0.879 c 0,-14.098 10.58,-20.27 53.73,-29.949 70.5,-15.422 114.54,-38.332 114.54,-96.031 v -0.879 c 0,-63.0004 -49.77,-100.449594 -124.66,-100.449594 -54.63,0 -106.18,17.187494 -144.5,51.097694"
         style="fill:#ffffff;fill-opacity:1;fill-rule:nonzero;stroke:none"
         id="path46" /><path
         d="m 2733.44,314.102 h 85.47 V 5.71875 h -85.47 V 314.102"
         style="fill:#ffffff;fill-opacity:1;fill-rule:nonzero;stroke:none"
         id="path48" /><path
         d="m 3023.28,239.211 h -92.07 v 74.891 h 270.04 v -74.891 h -92.5 V 5.71875 h -85.47 V 239.211"
         style="fill:#ffffff;fill-opacity:1;fill-rule:nonzero;stroke:none"
         id="path50" /><path
         d="m 3417.04,121.141 -117.61,192.961 h 97.35 l 63.43,-112.332 63.88,112.332 h 95.59 L 3502.5,122.469 V 5.71875 h -85.46 V 121.141"
         style="fill:#ffffff;fill-opacity:1;fill-rule:nonzero;stroke:none"
         id="path52" /></g></g></svg>
